<svg xmlns="http://www.w3.org/2000/svg" xmlns:xlink="http://www.w3.org/1999/xlink" width="500" zoomAndPan="magnify" viewBox="0 0 375 374.999991" height="500" preserveAspectRatio="xMidYMid meet" version="1.0"><defs><clipPath id="749b984164"><path d="M 135 144.46875 L 267.257812 144.46875 L 267.257812 255 L 135 255 Z M 135 144.46875 " clip-rule="nonzero"/></clipPath><clipPath id="4054f08d33"><path d="M 120 135 L 231 135 L 231 267.15625 L 120 267.15625 Z M 120 135 " clip-rule="nonzero"/></clipPath></defs><g clip-path="url(#749b984164)"><path fill="#ffde59" d="M 267.09375 179.6875 C 267.621094 187.40625 266.832031 195.28125 264.738281 202.886719 L 263.890625 205.726562 C 263.597656 206.667969 263.359375 207.640625 262.933594 208.535156 L 260.625 214.019531 L 257.796875 219.277344 C 257.347656 220.175781 256.769531 220.992188 256.214844 221.816406 L 254.539062 224.308594 C 249.890625 230.816406 244.128906 236.578125 237.566406 241.332031 C 235.882812 242.449219 234.199219 243.589844 232.484375 244.679688 L 227.082031 247.5 C 226.191406 248.003906 225.234375 248.363281 224.289062 248.738281 L 221.449219 249.875 C 219.582031 250.707031 217.605469 251.230469 215.644531 251.792969 C 207.753906 254.003906 199.621094 255.164062 191.226562 254.488281 C 182.890625 253.859375 174.675781 251.410156 167.28125 247.410156 C 159.875 243.417969 153.378906 237.789062 148.214844 231.132812 C 143.070312 224.453125 139.335938 216.679688 137.332031 208.472656 C 136.320312 204.367188 135.792969 200.152344 135.667969 195.941406 L 135.597656 194.363281 C 135.597656 193.832031 135.636719 193.289062 135.65625 192.753906 L 135.816406 189.53125 C 135.894531 188.453125 136.109375 187.390625 136.253906 186.324219 C 136.433594 185.261719 136.53125 184.1875 136.839844 183.152344 C 138.816406 174.757812 142.855469 166.835938 148.753906 160.585938 C 154.527344 154.230469 162.042969 149.566406 170.164062 146.988281 C 171.160156 146.601562 172.222656 146.4375 173.25 146.160156 C 174.296875 145.933594 175.308594 145.589844 176.367188 145.480469 C 178.476562 145.203125 180.570312 144.808594 182.699219 144.824219 C 186.894531 144.542969 191.335938 145.089844 195.457031 146.21875 C 203.792969 148.429688 211.207031 153.539062 216.339844 160.257812 C 218.929688 163.609375 220.855469 167.429688 222.203125 171.386719 C 223.539062 175.347656 224.285156 179.519531 224.207031 183.65625 C 224.246094 192.03125 220.730469 200.316406 214.78125 205.851562 C 211.828125 208.636719 208.347656 210.796875 204.613281 212.160156 C 200.871094 213.496094 196.898438 214.058594 193.039062 213.761719 C 200.769531 213.179688 207.941406 209.449219 212.644531 203.8125 C 214.988281 201 216.804688 197.792969 217.878906 194.375 C 218.960938 190.949219 219.320312 187.382812 218.976562 183.847656 C 218.75 180.269531 217.855469 176.777344 216.476562 173.535156 C 215.089844 170.296875 213.261719 167.246094 210.917969 164.65625 C 206.277344 159.484375 200.152344 155.636719 193.441406 154.289062 C 190.089844 153.582031 186.742188 153.308594 183.25 153.75 C 181.503906 153.808594 179.8125 154.207031 178.105469 154.492188 C 177.242188 154.597656 176.433594 154.9375 175.597656 155.140625 C 174.769531 155.410156 173.914062 155.550781 173.125 155.902344 C 166.660156 158.289062 160.710938 162.136719 156.253906 167.367188 C 153.9375 169.898438 152.085938 172.804688 150.496094 175.816406 C 149.785156 177.367188 149.003906 178.882812 148.515625 180.519531 C 148.257812 181.335938 147.882812 182.109375 147.71875 182.949219 L 147.117188 185.425781 C 146.875 186.242188 146.8125 187.101562 146.675781 187.9375 C 146.570312 188.78125 146.394531 189.621094 146.335938 190.46875 L 146.230469 193.019531 C 146.21875 193.445312 146.179688 193.871094 146.179688 194.300781 L 146.257812 195.609375 C 146.382812 199.105469 146.839844 202.585938 147.683594 205.964844 C 150.894531 219.558594 160.003906 231.609375 172.179688 238.625 C 178.238281 242.164062 185.066406 244.460938 192.105469 245.21875 C 193.871094 245.316406 195.636719 245.460938 197.414062 245.542969 C 199.21875 245.472656 201.019531 245.386719 202.832031 245.355469 C 203.742188 245.371094 204.636719 245.242188 205.53125 245.121094 L 208.222656 244.777344 C 209.117188 244.640625 210.027344 244.597656 210.910156 244.390625 L 213.5625 243.773438 C 227.738281 240.625 240.863281 232.507812 250.421875 221.125 L 252.191406 218.96875 C 252.78125 218.25 253.398438 217.539062 253.882812 216.746094 L 257.003906 212.078125 L 259.667969 207.117188 C 260.15625 206.304688 260.449219 205.410156 260.839844 204.550781 L 261.960938 201.945312 C 264.757812 194.921875 266.4375 187.40625 267.09375 179.6875 " fill-opacity="1" fill-rule="nonzero"/></g><path fill="#ffde59" d="M 108.335938 195.714844 C 107.808594 187.988281 108.59375 180.117188 110.683594 172.511719 L 111.539062 169.675781 C 111.832031 168.730469 112.070312 167.761719 112.492188 166.867188 L 114.804688 161.378906 L 117.632812 156.121094 C 118.078125 155.226562 118.652344 154.414062 119.210938 153.582031 L 120.886719 151.097656 C 125.539062 144.582031 131.300781 138.820312 137.859375 134.066406 C 139.546875 132.953125 141.226562 131.8125 142.9375 130.714844 L 148.347656 127.898438 C 149.234375 127.394531 150.1875 127.039062 151.136719 126.660156 L 153.972656 125.527344 C 155.84375 124.695312 157.820312 124.167969 159.785156 123.609375 C 167.671875 121.394531 175.804688 120.242188 184.195312 120.910156 C 192.53125 121.535156 200.753906 123.988281 208.144531 127.988281 C 215.554688 131.984375 222.050781 137.609375 227.210938 144.269531 C 232.355469 150.949219 236.085938 158.726562 238.09375 166.929688 C 239.101562 171.027344 239.632812 175.246094 239.757812 179.457031 L 239.832031 181.035156 C 239.832031 181.566406 239.792969 182.109375 239.769531 182.648438 L 239.609375 185.875 C 239.53125 186.941406 239.316406 188.007812 239.167969 189.078125 C 238.996094 190.136719 238.898438 191.214844 238.585938 192.25 C 236.613281 200.640625 232.570312 208.5625 226.671875 214.808594 C 220.902344 221.164062 213.386719 225.828125 205.265625 228.414062 C 204.269531 228.792969 203.203125 228.964844 202.171875 229.242188 C 201.132812 229.460938 200.121094 229.808594 199.054688 229.914062 C 196.949219 230.199219 194.855469 230.59375 192.726562 230.570312 C 188.535156 230.855469 184.089844 230.304688 179.972656 229.179688 C 171.628906 226.964844 164.222656 221.855469 159.089844 215.144531 C 156.496094 211.789062 154.570312 207.96875 153.226562 204.011719 C 151.890625 200.050781 151.140625 195.886719 151.222656 191.742188 C 151.183594 183.367188 154.695312 175.085938 160.644531 169.546875 C 163.597656 166.761719 167.078125 164.597656 170.808594 163.234375 C 174.554688 161.898438 178.527344 161.34375 182.386719 161.632812 C 174.65625 162.214844 167.488281 165.953125 162.785156 171.582031 C 160.433594 174.394531 158.625 177.605469 157.546875 181.023438 C 156.46875 184.445312 156.105469 188.011719 156.445312 191.554688 C 156.675781 195.125 157.570312 198.625 158.953125 201.863281 C 160.339844 205.097656 162.167969 208.148438 164.511719 210.742188 C 169.152344 215.917969 175.273438 219.761719 181.988281 221.113281 C 185.335938 221.816406 188.679688 222.089844 192.171875 221.652344 C 193.917969 221.589844 195.613281 221.195312 197.324219 220.910156 C 198.183594 220.804688 198.992188 220.464844 199.832031 220.253906 C 200.652344 219.996094 201.511719 219.847656 202.304688 219.496094 C 208.765625 217.113281 214.714844 213.265625 219.175781 208.035156 C 221.488281 205.5 223.339844 202.597656 224.929688 199.585938 C 225.644531 198.035156 226.425781 196.511719 226.910156 194.878906 C 227.164062 194.0625 227.539062 193.292969 227.710938 192.457031 L 228.308594 189.972656 C 228.550781 189.15625 228.613281 188.300781 228.75 187.464844 C 228.851562 186.613281 229.035156 185.78125 229.089844 184.933594 L 229.199219 182.375 C 229.210938 181.953125 229.25 181.527344 229.25 181.097656 L 229.164062 179.789062 C 229.046875 176.292969 228.585938 172.816406 227.742188 169.433594 C 224.527344 155.84375 215.421875 143.789062 203.25 136.777344 C 197.1875 133.234375 190.363281 130.9375 183.320312 130.179688 C 181.554688 130.082031 179.789062 129.933594 178.011719 129.863281 C 176.207031 129.929688 174.410156 130.015625 172.597656 130.042969 C 171.6875 130.027344 170.792969 130.15625 169.898438 130.28125 L 167.203125 130.625 C 166.308594 130.753906 165.394531 130.808594 164.515625 131.003906 L 161.867188 131.621094 C 147.691406 134.78125 134.566406 142.890625 125.007812 154.269531 L 123.234375 156.425781 C 122.640625 157.152344 122.03125 157.859375 121.542969 158.652344 L 118.425781 163.320312 L 115.757812 168.285156 C 115.265625 169.09375 114.972656 169.992188 114.582031 170.847656 L 113.46875 173.449219 C 110.671875 180.480469 108.992188 187.996094 108.335938 195.714844 " fill-opacity="1" fill-rule="nonzero"/><g clip-path="url(#4054f08d33)"><path fill="#004aad" d="M 197.601562 266.867188 C 189.894531 267.574219 182.003906 266.972656 174.347656 265.066406 L 171.492188 264.285156 C 170.542969 264.007812 169.570312 263.792969 168.664062 263.390625 L 163.125 261.207031 L 157.804688 258.5 C 156.890625 258.078125 156.066406 257.523438 155.222656 256.984375 L 152.691406 255.371094 C 146.078125 250.878906 140.179688 245.253906 135.273438 238.804688 C 134.117188 237.148438 132.941406 235.488281 131.804688 233.808594 L 128.859375 228.464844 C 128.335938 227.589844 127.949219 226.644531 127.554688 225.710938 L 126.347656 222.898438 C 125.476562 221.046875 124.90625 219.082031 124.300781 217.136719 C 121.898438 209.304688 120.554688 201.195312 121.023438 192.792969 C 121.457031 184.441406 123.710938 176.167969 127.535156 168.683594 C 131.351562 161.1875 136.828125 154.554688 143.359375 149.234375 C 149.914062 143.9375 157.601562 140.019531 165.761719 137.824219 C 169.835938 136.714844 174.035156 136.085938 178.246094 135.867188 L 179.820312 135.753906 C 180.351562 135.742188 180.894531 135.769531 181.433594 135.777344 L 184.664062 135.859375 C 185.734375 135.917969 186.800781 136.105469 187.871094 136.222656 C 188.9375 136.375 190.015625 136.445312 191.0625 136.738281 C 199.496094 138.507812 207.511719 142.363281 213.898438 148.113281 C 220.386719 153.734375 225.226562 161.136719 228.003906 169.195312 C 228.40625 170.179688 228.597656 171.242188 228.902344 172.261719 C 229.148438 173.296875 229.515625 174.300781 229.652344 175.359375 C 229.980469 177.464844 230.425781 179.546875 230.453125 181.675781 C 230.839844 185.863281 230.390625 190.316406 229.367188 194.457031 C 227.347656 202.847656 222.410156 210.378906 215.824219 215.671875 C 212.53125 218.339844 208.761719 220.351562 204.839844 221.792969 C 200.90625 223.21875 196.757812 224.070312 192.613281 224.085938 C 184.246094 224.324219 175.878906 221.007812 170.203125 215.1875 C 167.351562 212.304688 165.105469 208.875 163.65625 205.171875 C 162.230469 201.464844 161.578125 197.503906 161.78125 193.636719 C 162.546875 201.351562 166.445312 208.433594 172.191406 213.003906 C 175.058594 215.28125 178.308594 217.015625 181.753906 218.011719 C 185.199219 219.015625 188.773438 219.285156 192.304688 218.867188 C 195.875 218.550781 199.34375 217.570312 202.554688 216.117188 C 205.757812 214.652344 208.761719 212.753906 211.296875 210.355469 C 216.363281 205.589844 220.0625 199.375 221.25 192.636719 C 221.875 189.269531 222.066406 185.917969 221.550781 182.4375 C 221.449219 180.695312 221.007812 179.007812 220.6875 177.308594 C 220.554688 176.449219 220.199219 175.648438 219.972656 174.816406 C 219.691406 174 219.527344 173.144531 219.15625 172.359375 C 216.621094 165.957031 212.632812 160.101562 207.300781 155.765625 C 204.714844 153.511719 201.761719 151.730469 198.714844 150.214844 C 197.148438 149.539062 195.609375 148.792969 193.960938 148.339844 C 193.148438 148.109375 192.359375 147.75 191.523438 147.605469 L 189.027344 147.0625 C 188.207031 146.835938 187.347656 146.792969 186.507812 146.679688 C 185.660156 146.597656 184.820312 146.4375 183.96875 146.398438 L 181.414062 146.351562 C 180.984375 146.347656 180.566406 146.324219 180.136719 146.335938 L 178.828125 146.445312 C 175.335938 146.648438 171.867188 147.191406 168.503906 148.113281 C 154.996094 151.644531 143.164062 161.035156 136.4375 173.371094 C 133.039062 179.519531 130.902344 186.386719 130.308594 193.445312 C 130.257812 195.21875 130.152344 196.984375 130.117188 198.765625 C 130.226562 200.566406 130.355469 202.363281 130.433594 204.175781 C 130.433594 205.082031 130.585938 205.976562 130.730469 206.863281 L 131.136719 209.550781 C 131.292969 210.441406 131.363281 211.351562 131.582031 212.230469 L 132.261719 214.859375 C 135.75 228.964844 144.167969 241.890625 155.773438 251.179688 L 157.972656 252.898438 C 158.710938 253.476562 159.433594 254.070312 160.238281 254.539062 L 164.980469 257.542969 L 170 260.089844 C 170.824219 260.5625 171.726562 260.839844 172.589844 261.207031 L 175.222656 262.257812 C 182.316406 264.890625 189.863281 266.394531 197.601562 266.867188 " fill-opacity="1" fill-rule="nonzero"/></g><path fill="#004aad" d="M 177.828125 108.53125 C 185.535156 107.824219 193.425781 108.421875 201.074219 110.335938 L 203.933594 111.117188 C 204.882812 111.390625 205.859375 111.605469 206.761719 112.007812 L 212.304688 114.191406 L 217.625 116.894531 C 218.535156 117.320312 219.363281 117.875 220.203125 118.414062 L 222.730469 120.023438 C 229.351562 124.523438 235.246094 130.144531 240.15625 136.589844 C 241.308594 138.253906 242.484375 139.90625 243.625 141.59375 L 246.566406 146.929688 C 247.09375 147.808594 247.476562 148.753906 247.875 149.6875 L 249.074219 152.5 C 249.949219 154.355469 250.515625 156.3125 251.128906 158.265625 C 253.527344 166.097656 254.875 174.203125 254.40625 182.609375 C 253.96875 190.957031 251.714844 199.230469 247.890625 206.71875 C 244.070312 214.214844 238.597656 220.84375 232.066406 226.164062 C 225.507812 231.460938 217.820312 235.375 209.667969 237.578125 C 205.59375 238.683594 201.394531 239.308594 197.183594 239.53125 L 195.601562 239.648438 C 195.070312 239.660156 194.527344 239.632812 193.996094 239.621094 L 190.765625 239.535156 C 189.6875 239.484375 188.625 239.296875 187.554688 239.179688 C 186.484375 239.019531 185.40625 238.953125 184.363281 238.664062 C 175.929688 236.894531 167.917969 233.035156 161.527344 227.289062 C 155.035156 221.664062 150.195312 214.265625 147.425781 206.203125 C 147.015625 205.21875 146.828125 204.160156 146.523438 203.140625 C 146.28125 202.105469 145.90625 201.097656 145.777344 200.039062 C 145.449219 197.9375 145 195.851562 144.972656 193.730469 C 144.589844 189.539062 145.03125 185.085938 146.058594 180.9375 C 148.074219 172.550781 153.011719 165.019531 159.601562 159.726562 C 162.898438 157.0625 166.667969 155.046875 170.589844 153.601562 C 174.523438 152.175781 178.671875 151.328125 182.8125 151.3125 C 191.183594 151.074219 199.546875 154.394531 205.222656 160.207031 C 208.078125 163.09375 210.316406 166.523438 211.773438 170.226562 C 213.191406 173.9375 213.84375 177.894531 213.644531 181.757812 C 212.882812 174.046875 208.976562 166.964844 203.238281 162.398438 C 200.367188 160.117188 197.121094 158.378906 193.671875 157.390625 C 190.226562 156.386719 186.648438 156.109375 183.125 156.535156 C 179.554688 156.851562 176.082031 157.824219 172.875 159.28125 C 169.671875 160.746094 166.667969 162.640625 164.128906 165.046875 C 159.066406 169.8125 155.363281 176.019531 154.175781 182.761719 C 153.546875 186.128906 153.355469 189.484375 153.875 192.964844 C 153.976562 194.703125 154.417969 196.386719 154.742188 198.09375 C 154.867188 198.945312 155.222656 199.75 155.449219 200.582031 C 155.730469 201.398438 155.894531 202.25 156.269531 203.039062 C 158.804688 209.4375 162.796875 215.296875 168.125 219.632812 C 170.710938 221.882812 173.660156 223.667969 176.710938 225.183594 C 178.28125 225.863281 179.8125 226.605469 181.464844 227.058594 C 182.28125 227.296875 183.066406 227.644531 183.90625 227.792969 L 186.402344 228.335938 C 187.222656 228.5625 188.082031 228.601562 188.917969 228.722656 C 189.769531 228.804688 190.605469 228.964844 191.453125 229 L 194.011719 229.042969 C 194.4375 229.050781 194.863281 229.078125 195.292969 229.066406 L 196.597656 228.953125 C 200.089844 228.75 203.558594 228.207031 206.921875 227.285156 C 220.429688 223.757812 232.265625 214.363281 238.988281 202.027344 C 242.390625 195.886719 244.519531 189.007812 245.117188 181.953125 C 245.167969 180.179688 245.277344 178.414062 245.308594 176.636719 C 245.195312 174.835938 245.074219 173.03125 244.992188 171.226562 C 244.988281 170.316406 244.839844 169.425781 244.699219 168.53125 L 244.292969 165.851562 C 244.132812 164.957031 244.066406 164.042969 243.84375 163.167969 L 243.164062 160.535156 C 239.671875 146.4375 231.257812 133.507812 219.648438 124.226562 L 217.453125 122.503906 C 216.71875 121.925781 215.996094 121.328125 215.191406 120.863281 L 210.449219 117.859375 L 205.429688 115.304688 C 204.601562 114.835938 203.703125 114.5625 202.832031 114.191406 L 200.203125 113.136719 C 193.113281 110.511719 185.558594 109 177.828125 108.53125 " fill-opacity="1" fill-rule="nonzero"/></svg>